<svg width="22" height="25" viewBox="0 0 22 25" fill="none" xmlns="http://www.w3.org/2000/svg">
<g id="arrow-right-solid 1" clip-path="url(#clip0_1648_4825)">
<path id="Vector" d="M0.461606 11.3967C-0.152232 12.0071 -0.152232 12.9983 0.461606 13.6086L8.31875 21.4211C8.93259 22.0315 9.92946 22.0315 10.5433 21.4211C11.1571 20.8108 11.1571 19.8196 10.5433 19.2092L5.3625 14.0627L20.4286 14.0627C21.2978 14.0627 22 13.3645 22 12.5002C22 11.636 21.2978 10.9377 20.4286 10.9377L5.36741 10.9377L10.5384 5.79126C11.1522 5.18091 11.1522 4.1897 10.5384 3.57935C9.92455 2.969 8.92768 2.969 8.31384 3.57935L0.456695 11.3918L0.461606 11.3967Z" fill="#508F96"/>
</g>
<defs>
<clipPath id="clip0_1648_4825">
<rect width="22" height="25" fill="white" transform="translate(22 25) rotate(180)"/>
</clipPath>
</defs>
</svg>
