<svg width="26" height="28" viewBox="0 0 26 28" fill="none" xmlns="http://www.w3.org/2000/svg">
<g id="bars-solid 1">
<path id="Vector" d="M0 5.25C0 4.28203 0.829911 3.5 1.85714 3.5H24.1429C25.1701 3.5 26 4.28203 26 5.25C26 6.21797 25.1701 7 24.1429 7H1.85714C0.829911 7 0 6.21797 0 5.25ZM0 14C0 13.032 0.829911 12.25 1.85714 12.25H24.1429C25.1701 12.25 26 13.032 26 14C26 14.968 25.1701 15.75 24.1429 15.75H1.85714C0.829911 15.75 0 14.968 0 14ZM26 22.75C26 23.718 25.1701 24.5 24.1429 24.5H12C10.9728 24.5 10.1429 23.718 10.1429 22.75C10.1429 21.782 10.9728 21 12 21H24.1429C25.1701 21 26 21.782 26 22.75Z" fill="#3C6F75"/>
</g>
</svg>
