<svg width="15" height="23" viewBox="0 0 15 23" fill="none" xmlns="http://www.w3.org/2000/svg">
<g id="xmark-solid 1" clip-path="url(#clip0_1646_4719)">
<path id="Vector" d="M14.5595 6.76519C15.1454 6.20366 15.1454 5.29175 14.5595 4.73022C13.9735 4.1687 13.022 4.1687 12.436 4.73022L7.5001 9.46499L2.55947 4.73472C1.97354 4.17319 1.02197 4.17319 0.436035 4.73472C-0.149902 5.29624 -0.149902 6.20815 0.436035 6.76968L5.37666 11.5L0.440723 16.2347C-0.145215 16.7962 -0.145215 17.7082 0.440723 18.2697C1.02666 18.8312 1.97822 18.8312 2.56416 18.2697L7.5001 13.5349L12.4407 18.2652C13.0267 18.8267 13.9782 18.8267 14.5642 18.2652C15.1501 17.7037 15.1501 16.7917 14.5642 16.2302L9.62354 11.5L14.5595 6.76519Z" fill="#69A8AF"/>
</g>
<defs>
<clipPath id="clip0_1646_4719">
<rect width="15" height="23" fill="white"/>
</clipPath>
</defs>
</svg>
